<svg width="19" height="19" viewBox="0 0 19 19" fill="none" xmlns="http://www.w3.org/2000/svg">
<path d="M0.398624 0.398624C0.524664 0.272266 0.674393 0.172014 0.839237 0.103611C1.00408 0.0352085 1.1808 0 1.35927 0C1.53774 0 1.71446 0.0352085 1.87931 0.103611C2.04415 0.172014 2.19388 0.272266 2.31992 0.398624L9.50036 7.58177L16.6808 0.398624C16.8069 0.27247 16.9567 0.172399 17.1215 0.104125C17.2864 0.0358507 17.463 0.000710401 17.6414 0.000710401C17.8198 0.000710401 17.9965 0.0358507 18.1613 0.104125C18.3262 0.172399 18.4759 0.27247 18.6021 0.398624C18.7282 0.524778 18.8283 0.674545 18.8966 0.839373C18.9649 1.0042 19 1.18086 19 1.35927C19 1.53768 18.9649 1.71434 18.8966 1.87917C18.8283 2.044 18.7282 2.19377 18.6021 2.31992L11.4189 9.50036L18.6021 16.6808C18.7282 16.8069 18.8283 16.9567 18.8966 17.1215C18.9649 17.2864 19 17.463 19 17.6414C19 17.8198 18.9649 17.9965 18.8966 18.1613C18.8283 18.3262 18.7282 18.4759 18.6021 18.6021C18.4759 18.7282 18.3262 18.8283 18.1613 18.8966C17.9965 18.9649 17.8198 19 17.6414 19C17.463 19 17.2864 18.9649 17.1215 18.8966C16.9567 18.8283 16.8069 18.7282 16.6808 18.6021L9.50036 11.4189L2.31992 18.6021C2.19377 18.7282 2.044 18.8283 1.87917 18.8966C1.71434 18.9649 1.53768 19 1.35927 19C1.18086 19 1.0042 18.9649 0.839373 18.8966C0.674545 18.8283 0.524778 18.7282 0.398624 18.6021C0.27247 18.4759 0.172399 18.3262 0.104125 18.1613C0.0358507 17.9965 0.000710401 17.8198 0.000710401 17.6414C0.000710401 17.463 0.0358507 17.2864 0.104125 17.1215C0.172399 16.9567 0.27247 16.8069 0.398624 16.6808L7.58177 9.50036L0.398624 2.31992C0.272266 2.19388 0.172014 2.04415 0.103611 1.87931C0.0352085 1.71446 0 1.53774 0 1.35927C0 1.1808 0.0352085 1.00408 0.103611 0.839237C0.172014 0.674393 0.272266 0.524664 0.398624 0.398624Z" fill="#C2C2C2"/>
</svg>
