<svg width="38" height="38" viewBox="0 0 38 38" fill="none" xmlns="http://www.w3.org/2000/svg">
<path d="M7.91667 34.8332C7.04583 34.8332 6.30008 34.5234 5.67942 33.9038C5.05981 33.2831 4.75 32.5373 4.75 31.6665V9.49984H7.91667V31.6665H25.3333V34.8332H7.91667ZM14.25 28.4998C13.3792 28.4998 12.6339 28.19 12.0143 27.5704C11.3937 26.9498 11.0833 26.204 11.0833 25.3332V6.33317C11.0833 5.46234 11.3937 4.71659 12.0143 4.09592C12.6339 3.47631 13.3792 3.1665 14.25 3.1665H28.5C29.3708 3.1665 30.1166 3.47631 30.7372 4.09592C31.3569 4.71659 31.6667 5.46234 31.6667 6.33317V25.3332C31.6667 26.204 31.3569 26.9498 30.7372 27.5704C30.1166 28.19 29.3708 28.4998 28.5 28.4998H14.25ZM14.25 25.3332H28.5V6.33317H14.25V25.3332Z" fill="#C2C2C2"/>
</svg>
