<svg width="31" height="31" viewBox="0 0 31 31" fill="none" xmlns="http://www.w3.org/2000/svg">
<path d="M25.1875 23.25V27.125H5.8125V23.25H3.875V27.125L3.88275 27.1202C3.88186 27.3744 3.93107 27.6264 4.02758 27.8616C4.12409 28.0968 4.266 28.3108 4.44521 28.4911C4.62441 28.6715 4.8374 28.8148 5.07201 28.9128C5.30661 29.0109 5.55824 29.0617 5.8125 29.0625H25.1875C25.7014 29.0625 26.1942 28.8584 26.5575 28.495C26.9209 28.1317 27.125 27.6389 27.125 27.125V23.25H25.1875ZM5.8125 11.625L7.17941 12.9861L14.5312 5.64297V23.25H16.4688V5.64297L23.8225 12.9861L25.1875 11.625L15.5 1.9375L5.8125 11.625Z" fill="#484848"/>
</svg>
