<svg width="31" height="31" viewBox="0 0 31 31" fill="none" xmlns="http://www.w3.org/2000/svg">
<path d="M16.027 4.5222C16.1092 4.43783 16.2074 4.37078 16.3158 4.32499C16.4243 4.2792 16.5409 4.25562 16.6586 4.25562C16.7764 4.25562 16.8929 4.2792 17.0014 4.32499C17.1099 4.37078 17.2081 4.43783 17.2903 4.5222C17.4587 4.69512 17.5529 4.92697 17.5529 5.16835C17.5529 5.40974 17.4587 5.64158 17.2903 5.81451L7.84882 15.4981L17.2903 25.1837C17.3753 25.2707 17.4423 25.3736 17.4875 25.4865C17.5327 25.5994 17.5552 25.7202 17.5538 25.8418C17.5524 25.9634 17.527 26.0836 17.4791 26.1954C17.4312 26.3072 17.3618 26.4085 17.2748 26.4934C17.1919 26.5744 17.0938 26.6383 16.9862 26.6814C16.8786 26.7245 16.7636 26.7459 16.6477 26.7444C16.5318 26.743 16.4173 26.7187 16.3108 26.673C16.2043 26.6273 16.1079 26.561 16.027 26.4779L5.98688 16.1743C5.81054 15.9934 5.71185 15.7508 5.71185 15.4981C5.71185 15.2455 5.81054 15.0029 5.98688 14.8219L16.027 4.5222V4.5222ZM23.777 4.5222C23.8592 4.43783 23.9574 4.37078 24.0658 4.32499C24.1743 4.2792 24.2909 4.25562 24.4086 4.25562C24.5264 4.25562 24.6429 4.2792 24.7514 4.32499C24.8599 4.37078 24.9581 4.43783 25.0403 4.5222C25.2087 4.69512 25.3029 4.92697 25.3029 5.16835C25.3029 5.40974 25.2087 5.64158 25.0403 5.81451L15.5988 15.4981L25.0403 25.1837C25.1253 25.2707 25.1923 25.3736 25.2375 25.4865C25.2827 25.5994 25.3052 25.7202 25.3038 25.8418C25.3024 25.9634 25.277 26.0836 25.2291 26.1954C25.1812 26.3072 25.1118 26.4085 25.0248 26.4934C24.9419 26.5744 24.8438 26.6383 24.7362 26.6814C24.6286 26.7245 24.5136 26.7459 24.3977 26.7444C24.2818 26.743 24.1673 26.7187 24.0608 26.673C23.9543 26.6273 23.8579 26.561 23.777 26.4779L13.7369 16.1743C13.5605 15.9934 13.4619 15.7508 13.4619 15.4981C13.4619 15.2455 13.5605 15.0029 13.7369 14.8219L23.777 4.5222V4.5222Z" fill="#C2C2C2"/>
</svg>
