<svg width="72" height="31" viewBox="0 0 72 31" fill="none" xmlns="http://www.w3.org/2000/svg">
<mask id="path-1-outside-1_1482_22" maskUnits="userSpaceOnUse" x="0" y="0" width="72" height="31" fill="black">
<rect fill="white" width="72" height="31"/>
<path d="M15.0553 29.7321C15.5733 29.7321 17.8525 29.5594 21.8929 29.2141C22.5146 29.2141 22.998 29.0069 23.3088 28.558C23.3779 28.4198 23.4124 28.2472 23.4124 28.04C23.4124 27.8673 23.3088 27.6946 23.1016 27.522C22.8944 27.3838 22.7908 27.1766 22.7908 26.9003L22.7563 25.3118C22.7563 23.5506 22.8599 22.3419 23.1016 21.6857L23.1362 21.444C23.1362 21.2023 23.0326 20.9951 22.8254 20.7879C22.6182 20.6152 22.3764 20.5116 22.1001 20.5116C21.8584 20.5116 21.3404 20.5807 20.4771 20.6843C19.7173 20.7879 18.8885 20.8569 18.0252 20.8915C17.2999 21.0987 16.6093 21.2023 15.9186 21.2023C15.7459 21.2023 15.5733 21.2368 15.4006 21.2713C15.3315 21.3059 15.2625 21.3059 15.2279 21.3059C15.1589 21.3059 15.0898 21.3059 15.0553 21.3404C14.5372 21.444 14.0192 21.5131 13.5012 21.5131L12.6034 21.4785L11.1529 21.6167C10.8076 21.6167 10.4623 21.5821 10.1515 21.4785C9.18451 21.3059 8.5629 21.2023 8.32116 21.2023C7.52689 21.2023 7.11248 21.444 7.11248 21.962C7.11248 22.1347 7.21608 22.3074 7.45782 22.5491C7.76862 22.8599 7.90676 23.2052 7.90676 23.5851V23.8959C7.90676 24.483 7.94129 25.001 8.04489 25.4499C7.97583 25.8298 7.94129 26.1751 7.90676 26.5205C7.87222 27.1421 7.73409 27.7292 7.49235 28.3162C7.45782 28.3853 7.42329 28.4544 7.42329 28.5234C7.42329 28.6961 7.49235 28.8688 7.63049 29.0069C7.87222 29.3868 8.2521 29.5594 8.7701 29.5594C9.46078 29.5594 10.0133 29.5594 10.4277 29.5249L13.5703 29.6976L15.0553 29.7321ZM14.2264 28.4198C12.9487 28.4198 11.6709 28.3162 10.3932 28.1436C9.94425 28.1436 9.70252 27.9018 9.70252 27.4529C9.80612 25.0355 9.84065 23.8268 9.87519 23.7578C9.87519 23.3088 10.1515 23.0671 10.704 23.0671C11.2565 23.0326 11.6709 23.0326 11.9127 22.998C12.3271 22.9635 12.7415 22.929 13.1904 22.8944C14.261 22.7908 15.297 22.6872 16.3675 22.5491C17.0237 22.4455 17.7144 22.3764 18.3705 22.3419C18.6813 22.3074 18.9576 22.3074 19.2684 22.2728C19.5446 22.2383 19.7864 22.2383 19.9936 22.2383C20.408 22.2383 20.6497 22.2728 20.7533 22.411C20.8915 22.5146 20.926 22.7563 20.926 23.1707C20.926 24.3448 20.8569 25.2427 20.7188 25.8989C20.7188 26.2787 20.7188 26.555 20.7533 26.7622C20.7879 27.0039 20.8224 27.2457 20.8569 27.4874C20.8569 27.7292 20.7533 27.8328 20.5807 27.8328C17.3345 28.2126 15.5387 28.3853 15.1934 28.3853L14.2264 28.4198ZM2.27775 17.5417C2.48495 17.5417 2.79576 17.2999 3.21016 16.7819L3.79724 16.1603C4.24618 15.7805 4.62605 15.4006 4.93685 15.0207C5.24766 14.6408 5.59299 14.33 5.93833 14.0192C6.04193 13.9156 6.14553 13.812 6.2146 13.6394C6.38727 13.3286 6.55994 13.0178 6.80168 12.776C7.00888 12.5343 7.18155 12.2926 7.35422 12.0163C7.42329 11.9127 7.49235 11.8436 7.59595 11.8436C7.76862 11.9127 7.87222 11.9817 7.97583 12.0853C9.52985 13.4322 10.9112 14.8135 12.1199 16.2294C12.3962 16.6438 12.8796 16.851 13.6048 16.851C13.7775 16.851 13.9156 16.7819 14.0538 16.6438C14.1574 16.5057 14.2264 16.3675 14.2264 16.1949C14.2264 15.8841 14.1228 15.6423 13.8811 15.5387C13.5012 15.297 13.1214 15.0207 12.8106 14.6408C12.8106 14.6063 12.776 14.5718 12.6724 14.4682C12.5688 14.3646 12.3962 14.2264 12.1889 14.0192C11.1184 12.9487 10.4623 12.3616 10.2896 12.258C9.14997 11.222 8.59743 10.6004 8.59743 10.4623C8.59743 10.2551 8.83917 9.80612 9.32264 9.18451C9.32264 9.14997 9.32264 9.14997 9.35718 9.14997C9.52985 9.14997 10.186 8.04489 11.2911 5.8002C11.74 4.86778 12.0163 3.96991 12.0508 3.10656L12.1199 2.62309C12.1199 2.45042 12.0163 2.27775 11.8436 2.13962C11.6364 2.00148 11.4292 1.93241 11.1875 1.93241C10.8767 1.93241 10.6695 2.03601 10.6349 2.20868C10.6004 2.41589 10.5313 2.62309 10.4623 2.79576C10.3587 3.00296 10.3241 3.2447 10.2896 3.48643C10.2551 4.17711 9.84065 5.17859 9.04637 6.49087C8.63197 7.38875 8.21756 8.07943 7.76862 8.59743C7.31968 9.11544 6.87074 9.73705 6.42181 10.4623C5.8002 11.5328 5.10952 12.4307 4.38431 13.225L4.17711 13.5012V13.5358C2.79576 15.2625 1.79428 16.2985 1.2072 16.6438C1.06907 16.7129 1 16.851 1 17.0237C1 17.2654 1.13814 17.4381 1.37987 17.4726C1.62161 17.5072 1.93241 17.5417 2.27775 17.5417ZM21.3404 18.8885C21.962 18.8885 22.3074 18.6122 22.411 18.0597C22.4455 17.7489 22.48 17.4036 22.48 17.0927C22.48 16.5402 22.5491 14.9171 22.6872 12.1889C22.6872 9.77158 22.7563 8.32116 22.8599 7.83769C22.8254 7.73409 22.8254 7.63049 22.8254 7.49235C22.8254 7.38875 22.8254 7.31968 22.8254 7.28515C22.8254 7.25062 22.7908 7.18155 22.7563 7.00888L22.7908 5.66206C22.7908 5.28219 22.7563 4.93685 22.7563 4.59151C22.7218 4.24618 22.7218 3.93537 22.7218 3.62457C22.6872 3.31376 22.6527 3.03749 22.5836 2.72669C22.5146 2.45042 22.48 2.13962 22.48 1.82881V1.72521C22.48 1.27627 22.2037 1.03453 21.6857 1C21.2713 1 20.9605 1.2072 20.7533 1.62161C20.6843 1.72521 20.6497 1.86334 20.6497 2.00148L20.7533 2.55402C21.0296 3.41737 21.1677 4.34978 21.1677 5.28219V8.63197C21.1332 8.94277 21.1332 9.49531 21.1332 10.2896C21.1332 10.3932 21.0987 10.4623 21.0641 10.5313C21.0296 10.6004 20.9951 12.2926 20.926 15.6078C20.926 16.2985 20.8569 16.9546 20.7188 17.6453C20.6843 17.7489 20.6843 17.887 20.6843 18.0597C20.6843 18.2669 20.7533 18.4396 20.8915 18.6122C20.9951 18.7849 21.1677 18.854 21.3404 18.8885Z"/>
<path d="M41.37 29.5594C41.7153 29.5594 42.1297 29.5249 42.6132 29.4904C43.5456 29.3868 44.6852 28.7652 46.1011 27.6256C46.3774 27.4184 46.5846 27.1766 46.7227 26.9003C47.1717 26.0025 47.3789 25.1046 47.3789 24.1722C47.3789 22.2383 46.6191 21.0987 45.0997 20.7188C44.8925 20.6843 44.6852 20.6497 44.478 20.5461C43.9255 20.3735 43.4075 20.2699 42.924 20.2699C41.0592 20.2699 39.8505 20.8915 39.2634 22.1692L38.8145 23.0326C38.262 24.0686 37.9857 25.1737 37.9857 26.3478C38.0548 27.2802 38.3656 28.0745 38.9181 28.7652C39.1598 29.076 39.6088 29.2832 40.2649 29.4213C40.6103 29.5249 40.9901 29.5594 41.37 29.5594ZM41.7499 28.2817C41.1628 28.2817 40.6793 28.109 40.2649 27.7637C39.8505 27.4184 39.6433 26.9003 39.6433 26.2097C39.6433 25.0355 40.0232 23.965 40.7139 22.998C41.3009 22.2728 42.1297 21.8929 43.2348 21.8929C44.8925 21.8929 45.7213 22.5836 45.7213 23.9995C45.7213 24.3103 45.6867 24.5866 45.6177 24.7938C45.5486 25.001 45.5141 25.2082 45.4795 25.4154C45.3759 26.1751 44.9961 26.7967 44.3744 27.2457C43.5111 27.9364 42.6478 28.2817 41.7499 28.2817ZM27.9364 17.818C28.0054 17.7834 28.109 17.7144 28.1781 17.5762C28.6616 16.9891 29.2486 16.5747 29.9048 16.2639C30.3883 15.9877 32.0459 14.7444 34.8777 12.4998C35.3266 12.0853 35.6374 11.8781 35.8791 11.8781C35.9482 11.8781 36.1899 12.0853 36.5698 12.4652C37.5368 13.5012 38.0548 14.3991 38.1929 15.1243C38.262 15.7459 38.6418 16.0222 39.298 16.0222C39.9887 16.0222 40.3685 15.7114 40.3685 15.0553C40.3685 14.7099 40.2649 14.4336 40.0232 14.261C39.816 14.0883 39.6088 13.8811 39.4361 13.6739C39.2289 13.3976 38.9526 13.1559 38.6764 12.9832C38.1584 12.3271 37.744 11.5673 37.4332 10.7385C37.4332 10.4968 37.5368 10.2551 37.744 10.0133C38.9181 8.5629 39.816 7.73409 40.4376 7.45782C40.8865 7.28515 41.2319 7.14702 41.5081 7.04341C41.8535 6.87074 42.0261 6.59447 42.0261 6.18007C42.0261 5.9038 41.9225 5.66206 41.6463 5.42033C41.2664 5.10952 40.852 4.93685 40.4031 4.93685C38.9872 5.10952 38.1584 5.21312 37.9512 5.21312C37.7094 5.21312 37.5022 5.21312 37.2605 5.24766C35.1885 5.38579 33.1164 5.45486 31.0444 5.45486H29.076L28.4889 5.48939L27.2111 5.38579L26.7622 5.42033C26.3823 5.45486 26.2097 5.6966 26.2097 6.07647C26.2097 6.62901 26.6586 6.90528 27.5565 6.90528L29.076 6.93981C29.5594 6.93981 30.6991 6.87074 32.4948 6.76714V6.80168L33.5999 6.76714C34.4632 6.73261 35.5338 6.69808 36.8461 6.69808C37.5368 6.76714 37.9512 6.76714 38.1238 6.76714C38.262 6.76714 38.3656 6.80168 38.4001 6.90528C38.4001 6.97435 38.3656 7.04341 38.2965 7.11248C37.4332 7.97583 36.8461 8.59743 36.5353 8.97731C36.3281 9.21904 36.0863 9.42625 35.7755 9.56438C35.4993 9.73705 35.2575 9.94425 35.0849 10.2205C34.7395 10.8076 34.3251 11.2911 33.7726 11.6709C33.7035 11.6709 33.0128 12.1889 31.7696 13.2595C31.2171 13.7775 30.63 14.1574 29.9393 14.4682C28.1781 15.3315 27.3148 16.2294 27.3148 17.1963C27.3148 17.369 27.3148 17.4726 27.3493 17.5072C27.3838 17.5417 27.3838 17.5762 27.3838 17.6108C27.4184 17.7489 27.522 17.818 27.6946 17.818H27.9364ZM32.8056 3.21016C33.1855 3.17563 33.5999 3.10656 33.9452 3.00296C34.187 2.96843 34.4287 2.93389 34.6704 2.93389C34.9122 2.93389 35.1539 2.96843 35.3957 3.03749C35.6374 3.1411 35.8446 3.17563 36.0518 3.17563C37.1569 3.17563 37.6749 2.89936 37.6749 2.34682C37.6749 2.13962 37.5713 1.89788 37.295 1.65614C36.9497 1.34534 36.4662 1.2072 35.8446 1.2072C35.7065 1.2072 35.5338 1.2072 35.3611 1.24174C35.223 1.27627 35.0503 1.27627 34.9122 1.27627L33.9798 1.41441C33.8416 1.41441 33.7035 1.37987 33.5654 1.34534C33.3927 1.3108 33.1164 1.27627 32.633 1.27627C31.9077 1.27627 31.5624 1.55254 31.5624 2.07055C31.5624 2.38135 31.7351 2.65762 32.0804 2.93389C32.2876 3.10656 32.5294 3.21016 32.8056 3.21016ZM48.5876 19.0266C49.2437 19.0266 49.589 18.7504 49.6926 18.1978C49.7617 17.887 49.7617 17.5417 49.7617 17.2309C49.7617 15.7805 49.8308 14.8481 49.8999 14.4682C49.8999 14.3991 49.8653 14.261 49.8653 14.0538C49.8653 13.812 49.8653 13.6048 49.8999 13.4667C49.8999 13.3631 49.8999 12.9832 49.8999 12.3271H49.9689V11.2911H50.1071C50.038 10.9803 49.9689 10.6695 49.9689 10.3932C50.0035 9.56438 50.038 8.73557 50.1071 7.90676L50.038 7.18155C50.038 4.79872 50.0035 3.38283 49.8653 2.93389C49.7962 2.62309 49.7617 2.31228 49.7617 1.96695C49.7617 1.44894 49.4854 1.17267 48.9329 1.17267C48.553 1.17267 48.2422 1.37987 48.0005 1.75974C47.966 1.89788 47.9314 2.03601 47.9314 2.17415C47.966 2.34682 48.0005 2.51949 48.035 2.69216C48.3113 3.5555 48.4494 4.48791 48.4494 5.42033C48.4494 6.111 48.4494 6.62901 48.4494 6.97435C48.4149 7.31968 48.4149 8.2521 48.4149 9.80612L44.3744 9.90972H42.337C41.888 9.90972 41.5081 10.0479 41.1628 10.3241C40.9901 10.4623 40.9211 10.6349 40.9211 10.8076C40.9211 11.2911 41.2319 11.5328 41.888 11.5328C42.2333 11.5673 42.5442 11.6019 42.855 11.6019C45.8594 11.6019 47.6552 11.5673 48.2768 11.4637L48.2077 14.0538V15.5387C48.2077 16.2985 48.1386 17.0582 48.0005 17.7834C48.0005 17.887 47.966 18.0252 47.966 18.1978C47.966 18.7504 48.1732 19.0266 48.5876 19.0266Z"/>
<path d="M57.0829 19.441C57.9808 19.441 59.0168 19.1302 60.1219 18.4741L61.3305 17.7834C61.9176 17.5072 62.332 17.0927 62.6428 16.5402C62.9536 16.0222 63.299 15.4351 63.6098 14.8135C64.0587 13.9847 64.3004 13.0868 64.3004 12.1889C64.3004 10.1515 63.4026 8.7701 61.6759 8.01036C61.296 7.83769 60.9161 7.76862 60.5017 7.76862C60.26 7.76862 60.0183 7.80316 59.7765 7.83769L59.3966 7.80316C58.706 7.80316 58.2225 7.90676 57.9462 8.11396C57.67 8.32116 57.3591 8.42477 56.9793 8.4593C56.5994 8.49383 56.3231 8.63197 56.0814 8.94277C55.7015 9.39171 55.2871 9.77158 54.8036 10.0824C54.5619 10.2551 54.3547 10.5313 54.182 10.8421C53.6295 11.8781 53.2496 12.9832 53.0079 14.261C52.9043 14.5718 52.8698 14.8481 52.8698 15.1243C52.8698 15.3315 52.9388 15.7114 53.0424 16.2985V16.4366C53.1806 17.5417 53.7331 18.336 54.7001 18.8194C55.4943 19.2338 56.2886 19.441 57.0829 19.441ZM57.0483 17.8525C56.3922 17.8525 55.8051 17.6798 55.3217 17.3345C54.8382 16.9891 54.5619 16.1603 54.5274 14.9171C54.6655 14.33 54.7691 13.9502 54.8382 13.812C54.9072 13.6739 54.9418 13.5358 54.9763 13.3976C55.2181 12.5688 55.5289 11.9817 55.8397 11.6709C56.0123 11.4983 56.185 11.2565 56.4267 10.9457C56.5994 10.704 56.9793 10.4623 57.6009 10.1515C57.9808 9.94425 58.2225 9.80612 58.3952 9.80612C58.4642 9.80612 58.5333 9.84065 58.6369 9.84065C58.7405 9.87519 58.8441 9.87519 58.9477 9.87519C59.224 9.87519 59.5002 9.84065 59.742 9.73705C60.0183 9.63345 60.26 9.59891 60.4672 9.59891C61.0888 9.59891 61.5723 9.87519 61.9521 10.3932C62.2975 10.9112 62.5047 11.4637 62.5047 12.0508C62.5047 12.258 62.4702 12.4652 62.4356 12.6724C62.332 12.8451 62.263 13.1904 62.1939 13.7084C62.0903 14.6063 61.6759 15.3661 60.9852 15.9531C60.5708 16.2985 60.1564 16.6438 59.742 16.9546C58.9477 17.5417 58.0498 17.8525 57.0483 17.8525ZM69.515 27.4184C70.1367 27.4184 70.482 27.1421 70.5856 26.5895C70.6201 26.2787 70.6547 25.9334 70.6547 25.6226C70.6547 24.7938 70.6892 23.965 70.7583 23.1362C70.7583 21.8584 70.7583 21.0296 70.7928 20.7188V17.7834H70.8619C70.8619 15.815 70.8964 13.812 71 11.7745C70.9655 10.8767 70.9309 9.97879 70.9309 9.08091C70.9309 6.87074 70.8619 5.52393 70.7583 5.07499C70.6892 4.76418 70.6547 4.45338 70.6547 4.10804C70.6547 3.59003 70.3784 3.31376 69.8259 3.31376C69.4114 3.31376 69.1006 3.52097 68.8934 3.90084C68.8589 4.03897 68.8244 4.17711 68.8244 4.31524C68.8589 4.48791 68.8934 4.66058 68.928 4.83325C69.2042 5.6966 69.3424 6.62901 69.3424 7.56142C69.3424 12.4998 69.3078 15.6078 69.2388 16.9201C69.1352 17.7144 69.1006 19.9936 69.1006 23.7923C69.1006 24.6211 69.0316 25.4154 68.8934 26.1751C68.8589 26.2787 68.8589 26.4169 68.8589 26.5895C68.8589 27.1075 69.0661 27.3838 69.515 27.4184Z"/>
</mask>
<path d="M15.0553 29.7321C15.5733 29.7321 17.8525 29.5594 21.8929 29.2141C22.5146 29.2141 22.998 29.0069 23.3088 28.558C23.3779 28.4198 23.4124 28.2472 23.4124 28.04C23.4124 27.8673 23.3088 27.6946 23.1016 27.522C22.8944 27.3838 22.7908 27.1766 22.7908 26.9003L22.7563 25.3118C22.7563 23.5506 22.8599 22.3419 23.1016 21.6857L23.1362 21.444C23.1362 21.2023 23.0326 20.9951 22.8254 20.7879C22.6182 20.6152 22.3764 20.5116 22.1001 20.5116C21.8584 20.5116 21.3404 20.5807 20.4771 20.6843C19.7173 20.7879 18.8885 20.8569 18.0252 20.8915C17.2999 21.0987 16.6093 21.2023 15.9186 21.2023C15.7459 21.2023 15.5733 21.2368 15.4006 21.2713C15.3315 21.3059 15.2625 21.3059 15.2279 21.3059C15.1589 21.3059 15.0898 21.3059 15.0553 21.3404C14.5372 21.444 14.0192 21.5131 13.5012 21.5131L12.6034 21.4785L11.1529 21.6167C10.8076 21.6167 10.4623 21.5821 10.1515 21.4785C9.18451 21.3059 8.5629 21.2023 8.32116 21.2023C7.52689 21.2023 7.11248 21.444 7.11248 21.962C7.11248 22.1347 7.21608 22.3074 7.45782 22.5491C7.76862 22.8599 7.90676 23.2052 7.90676 23.5851V23.8959C7.90676 24.483 7.94129 25.001 8.04489 25.4499C7.97583 25.8298 7.94129 26.1751 7.90676 26.5205C7.87222 27.1421 7.73409 27.7292 7.49235 28.3162C7.45782 28.3853 7.42329 28.4544 7.42329 28.5234C7.42329 28.6961 7.49235 28.8688 7.63049 29.0069C7.87222 29.3868 8.2521 29.5594 8.7701 29.5594C9.46078 29.5594 10.0133 29.5594 10.4277 29.5249L13.5703 29.6976L15.0553 29.7321ZM14.2264 28.4198C12.9487 28.4198 11.6709 28.3162 10.3932 28.1436C9.94425 28.1436 9.70252 27.9018 9.70252 27.4529C9.80612 25.0355 9.84065 23.8268 9.87519 23.7578C9.87519 23.3088 10.1515 23.0671 10.704 23.0671C11.2565 23.0326 11.6709 23.0326 11.9127 22.998C12.3271 22.9635 12.7415 22.929 13.1904 22.8944C14.261 22.7908 15.297 22.6872 16.3675 22.5491C17.0237 22.4455 17.7144 22.3764 18.3705 22.3419C18.6813 22.3074 18.9576 22.3074 19.2684 22.2728C19.5446 22.2383 19.7864 22.2383 19.9936 22.2383C20.408 22.2383 20.6497 22.2728 20.7533 22.411C20.8915 22.5146 20.926 22.7563 20.926 23.1707C20.926 24.3448 20.8569 25.2427 20.7188 25.8989C20.7188 26.2787 20.7188 26.555 20.7533 26.7622C20.7879 27.0039 20.8224 27.2457 20.8569 27.4874C20.8569 27.7292 20.7533 27.8328 20.5807 27.8328C17.3345 28.2126 15.5387 28.3853 15.1934 28.3853L14.2264 28.4198ZM2.27775 17.5417C2.48495 17.5417 2.79576 17.2999 3.21016 16.7819L3.79724 16.1603C4.24618 15.7805 4.62605 15.4006 4.93685 15.0207C5.24766 14.6408 5.59299 14.33 5.93833 14.0192C6.04193 13.9156 6.14553 13.812 6.2146 13.6394C6.38727 13.3286 6.55994 13.0178 6.80168 12.776C7.00888 12.5343 7.18155 12.2926 7.35422 12.0163C7.42329 11.9127 7.49235 11.8436 7.59595 11.8436C7.76862 11.9127 7.87222 11.9817 7.97583 12.0853C9.52985 13.4322 10.9112 14.8135 12.1199 16.2294C12.3962 16.6438 12.8796 16.851 13.6048 16.851C13.7775 16.851 13.9156 16.7819 14.0538 16.6438C14.1574 16.5057 14.2264 16.3675 14.2264 16.1949C14.2264 15.8841 14.1228 15.6423 13.8811 15.5387C13.5012 15.297 13.1214 15.0207 12.8106 14.6408C12.8106 14.6063 12.776 14.5718 12.6724 14.4682C12.5688 14.3646 12.3962 14.2264 12.1889 14.0192C11.1184 12.9487 10.4623 12.3616 10.2896 12.258C9.14997 11.222 8.59743 10.6004 8.59743 10.4623C8.59743 10.2551 8.83917 9.80612 9.32264 9.18451C9.32264 9.14997 9.32264 9.14997 9.35718 9.14997C9.52985 9.14997 10.186 8.04489 11.2911 5.8002C11.74 4.86778 12.0163 3.96991 12.0508 3.10656L12.1199 2.62309C12.1199 2.45042 12.0163 2.27775 11.8436 2.13962C11.6364 2.00148 11.4292 1.93241 11.1875 1.93241C10.8767 1.93241 10.6695 2.03601 10.6349 2.20868C10.6004 2.41589 10.5313 2.62309 10.4623 2.79576C10.3587 3.00296 10.3241 3.2447 10.2896 3.48643C10.2551 4.17711 9.84065 5.17859 9.04637 6.49087C8.63197 7.38875 8.21756 8.07943 7.76862 8.59743C7.31968 9.11544 6.87074 9.73705 6.42181 10.4623C5.8002 11.5328 5.10952 12.4307 4.38431 13.225L4.17711 13.5012V13.5358C2.79576 15.2625 1.79428 16.2985 1.2072 16.6438C1.06907 16.7129 1 16.851 1 17.0237C1 17.2654 1.13814 17.4381 1.37987 17.4726C1.62161 17.5072 1.93241 17.5417 2.27775 17.5417ZM21.3404 18.8885C21.962 18.8885 22.3074 18.6122 22.411 18.0597C22.4455 17.7489 22.48 17.4036 22.48 17.0927C22.48 16.5402 22.5491 14.9171 22.6872 12.1889C22.6872 9.77158 22.7563 8.32116 22.8599 7.83769C22.8254 7.73409 22.8254 7.63049 22.8254 7.49235C22.8254 7.38875 22.8254 7.31968 22.8254 7.28515C22.8254 7.25062 22.7908 7.18155 22.7563 7.00888L22.7908 5.66206C22.7908 5.28219 22.7563 4.93685 22.7563 4.59151C22.7218 4.24618 22.7218 3.93537 22.7218 3.62457C22.6872 3.31376 22.6527 3.03749 22.5836 2.72669C22.5146 2.45042 22.48 2.13962 22.48 1.82881V1.72521C22.48 1.27627 22.2037 1.03453 21.6857 1C21.2713 1 20.9605 1.2072 20.7533 1.62161C20.6843 1.72521 20.6497 1.86334 20.6497 2.00148L20.7533 2.55402C21.0296 3.41737 21.1677 4.34978 21.1677 5.28219V8.63197C21.1332 8.94277 21.1332 9.49531 21.1332 10.2896C21.1332 10.3932 21.0987 10.4623 21.0641 10.5313C21.0296 10.6004 20.9951 12.2926 20.926 15.6078C20.926 16.2985 20.8569 16.9546 20.7188 17.6453C20.6843 17.7489 20.6843 17.887 20.6843 18.0597C20.6843 18.2669 20.7533 18.4396 20.8915 18.6122C20.9951 18.7849 21.1677 18.854 21.3404 18.8885Z" fill="#484848"/>
<path d="M41.37 29.5594C41.7153 29.5594 42.1297 29.5249 42.6132 29.4904C43.5456 29.3868 44.6852 28.7652 46.1011 27.6256C46.3774 27.4184 46.5846 27.1766 46.7227 26.9003C47.1717 26.0025 47.3789 25.1046 47.3789 24.1722C47.3789 22.2383 46.6191 21.0987 45.0997 20.7188C44.8925 20.6843 44.6852 20.6497 44.478 20.5461C43.9255 20.3735 43.4075 20.2699 42.924 20.2699C41.0592 20.2699 39.8505 20.8915 39.2634 22.1692L38.8145 23.0326C38.262 24.0686 37.9857 25.1737 37.9857 26.3478C38.0548 27.2802 38.3656 28.0745 38.9181 28.7652C39.1598 29.076 39.6088 29.2832 40.2649 29.4213C40.6103 29.5249 40.9901 29.5594 41.37 29.5594ZM41.7499 28.2817C41.1628 28.2817 40.6793 28.109 40.2649 27.7637C39.8505 27.4184 39.6433 26.9003 39.6433 26.2097C39.6433 25.0355 40.0232 23.965 40.7139 22.998C41.3009 22.2728 42.1297 21.8929 43.2348 21.8929C44.8925 21.8929 45.7213 22.5836 45.7213 23.9995C45.7213 24.3103 45.6867 24.5866 45.6177 24.7938C45.5486 25.001 45.5141 25.2082 45.4795 25.4154C45.3759 26.1751 44.9961 26.7967 44.3744 27.2457C43.5111 27.9364 42.6478 28.2817 41.7499 28.2817ZM27.9364 17.818C28.0054 17.7834 28.109 17.7144 28.1781 17.5762C28.6616 16.9891 29.2486 16.5747 29.9048 16.2639C30.3883 15.9877 32.0459 14.7444 34.8777 12.4998C35.3266 12.0853 35.6374 11.8781 35.8791 11.8781C35.9482 11.8781 36.1899 12.0853 36.5698 12.4652C37.5368 13.5012 38.0548 14.3991 38.1929 15.1243C38.262 15.7459 38.6418 16.0222 39.298 16.0222C39.9887 16.0222 40.3685 15.7114 40.3685 15.0553C40.3685 14.7099 40.2649 14.4336 40.0232 14.261C39.816 14.0883 39.6088 13.8811 39.4361 13.6739C39.2289 13.3976 38.9526 13.1559 38.6764 12.9832C38.1584 12.3271 37.744 11.5673 37.4332 10.7385C37.4332 10.4968 37.5368 10.2551 37.744 10.0133C38.9181 8.5629 39.816 7.73409 40.4376 7.45782C40.8865 7.28515 41.2319 7.14702 41.5081 7.04341C41.8535 6.87074 42.0261 6.59447 42.0261 6.18007C42.0261 5.9038 41.9225 5.66206 41.6463 5.42033C41.2664 5.10952 40.852 4.93685 40.4031 4.93685C38.9872 5.10952 38.1584 5.21312 37.9512 5.21312C37.7094 5.21312 37.5022 5.21312 37.2605 5.24766C35.1885 5.38579 33.1164 5.45486 31.0444 5.45486H29.076L28.4889 5.48939L27.2111 5.38579L26.7622 5.42033C26.3823 5.45486 26.2097 5.6966 26.2097 6.07647C26.2097 6.62901 26.6586 6.90528 27.5565 6.90528L29.076 6.93981C29.5594 6.93981 30.6991 6.87074 32.4948 6.76714V6.80168L33.5999 6.76714C34.4632 6.73261 35.5338 6.69808 36.8461 6.69808C37.5368 6.76714 37.9512 6.76714 38.1238 6.76714C38.262 6.76714 38.3656 6.80168 38.4001 6.90528C38.4001 6.97435 38.3656 7.04341 38.2965 7.11248C37.4332 7.97583 36.8461 8.59743 36.5353 8.97731C36.3281 9.21904 36.0863 9.42625 35.7755 9.56438C35.4993 9.73705 35.2575 9.94425 35.0849 10.2205C34.7395 10.8076 34.3251 11.2911 33.7726 11.6709C33.7035 11.6709 33.0128 12.1889 31.7696 13.2595C31.2171 13.7775 30.63 14.1574 29.9393 14.4682C28.1781 15.3315 27.3148 16.2294 27.3148 17.1963C27.3148 17.369 27.3148 17.4726 27.3493 17.5072C27.3838 17.5417 27.3838 17.5762 27.3838 17.6108C27.4184 17.7489 27.522 17.818 27.6946 17.818H27.9364ZM32.8056 3.21016C33.1855 3.17563 33.5999 3.10656 33.9452 3.00296C34.187 2.96843 34.4287 2.93389 34.6704 2.93389C34.9122 2.93389 35.1539 2.96843 35.3957 3.03749C35.6374 3.1411 35.8446 3.17563 36.0518 3.17563C37.1569 3.17563 37.6749 2.89936 37.6749 2.34682C37.6749 2.13962 37.5713 1.89788 37.295 1.65614C36.9497 1.34534 36.4662 1.2072 35.8446 1.2072C35.7065 1.2072 35.5338 1.2072 35.3611 1.24174C35.223 1.27627 35.0503 1.27627 34.9122 1.27627L33.9798 1.41441C33.8416 1.41441 33.7035 1.37987 33.5654 1.34534C33.3927 1.3108 33.1164 1.27627 32.633 1.27627C31.9077 1.27627 31.5624 1.55254 31.5624 2.07055C31.5624 2.38135 31.7351 2.65762 32.0804 2.93389C32.2876 3.10656 32.5294 3.21016 32.8056 3.21016ZM48.5876 19.0266C49.2437 19.0266 49.589 18.7504 49.6926 18.1978C49.7617 17.887 49.7617 17.5417 49.7617 17.2309C49.7617 15.7805 49.8308 14.8481 49.8999 14.4682C49.8999 14.3991 49.8653 14.261 49.8653 14.0538C49.8653 13.812 49.8653 13.6048 49.8999 13.4667C49.8999 13.3631 49.8999 12.9832 49.8999 12.3271H49.9689V11.2911H50.1071C50.038 10.9803 49.9689 10.6695 49.9689 10.3932C50.0035 9.56438 50.038 8.73557 50.1071 7.90676L50.038 7.18155C50.038 4.79872 50.0035 3.38283 49.8653 2.93389C49.7962 2.62309 49.7617 2.31228 49.7617 1.96695C49.7617 1.44894 49.4854 1.17267 48.9329 1.17267C48.553 1.17267 48.2422 1.37987 48.0005 1.75974C47.966 1.89788 47.9314 2.03601 47.9314 2.17415C47.966 2.34682 48.0005 2.51949 48.035 2.69216C48.3113 3.5555 48.4494 4.48791 48.4494 5.42033C48.4494 6.111 48.4494 6.62901 48.4494 6.97435C48.4149 7.31968 48.4149 8.2521 48.4149 9.80612L44.3744 9.90972H42.337C41.888 9.90972 41.5081 10.0479 41.1628 10.3241C40.9901 10.4623 40.9211 10.6349 40.9211 10.8076C40.9211 11.2911 41.2319 11.5328 41.888 11.5328C42.2333 11.5673 42.5442 11.6019 42.855 11.6019C45.8594 11.6019 47.6552 11.5673 48.2768 11.4637L48.2077 14.0538V15.5387C48.2077 16.2985 48.1386 17.0582 48.0005 17.7834C48.0005 17.887 47.966 18.0252 47.966 18.1978C47.966 18.7504 48.1732 19.0266 48.5876 19.0266Z" fill="#484848"/>
<path d="M57.0829 19.441C57.9808 19.441 59.0168 19.1302 60.1219 18.4741L61.3305 17.7834C61.9176 17.5072 62.332 17.0927 62.6428 16.5402C62.9536 16.0222 63.299 15.4351 63.6098 14.8135C64.0587 13.9847 64.3004 13.0868 64.3004 12.1889C64.3004 10.1515 63.4026 8.7701 61.6759 8.01036C61.296 7.83769 60.9161 7.76862 60.5017 7.76862C60.26 7.76862 60.0183 7.80316 59.7765 7.83769L59.3966 7.80316C58.706 7.80316 58.2225 7.90676 57.9462 8.11396C57.67 8.32116 57.3591 8.42477 56.9793 8.4593C56.5994 8.49383 56.3231 8.63197 56.0814 8.94277C55.7015 9.39171 55.2871 9.77158 54.8036 10.0824C54.5619 10.2551 54.3547 10.5313 54.182 10.8421C53.6295 11.8781 53.2496 12.9832 53.0079 14.261C52.9043 14.5718 52.8698 14.8481 52.8698 15.1243C52.8698 15.3315 52.9388 15.7114 53.0424 16.2985V16.4366C53.1806 17.5417 53.7331 18.336 54.7001 18.8194C55.4943 19.2338 56.2886 19.441 57.0829 19.441ZM57.0483 17.8525C56.3922 17.8525 55.8051 17.6798 55.3217 17.3345C54.8382 16.9891 54.5619 16.1603 54.5274 14.9171C54.6655 14.33 54.7691 13.9502 54.8382 13.812C54.9072 13.6739 54.9418 13.5358 54.9763 13.3976C55.2181 12.5688 55.5289 11.9817 55.8397 11.6709C56.0123 11.4983 56.185 11.2565 56.4267 10.9457C56.5994 10.704 56.9793 10.4623 57.6009 10.1515C57.9808 9.94425 58.2225 9.80612 58.3952 9.80612C58.4642 9.80612 58.5333 9.84065 58.6369 9.84065C58.7405 9.87519 58.8441 9.87519 58.9477 9.87519C59.224 9.87519 59.5002 9.84065 59.742 9.73705C60.0183 9.63345 60.26 9.59891 60.4672 9.59891C61.0888 9.59891 61.5723 9.87519 61.9521 10.3932C62.2975 10.9112 62.5047 11.4637 62.5047 12.0508C62.5047 12.258 62.4702 12.4652 62.4356 12.6724C62.332 12.8451 62.263 13.1904 62.1939 13.7084C62.0903 14.6063 61.6759 15.3661 60.9852 15.9531C60.5708 16.2985 60.1564 16.6438 59.742 16.9546C58.9477 17.5417 58.0498 17.8525 57.0483 17.8525ZM69.515 27.4184C70.1367 27.4184 70.482 27.1421 70.5856 26.5895C70.6201 26.2787 70.6547 25.9334 70.6547 25.6226C70.6547 24.7938 70.6892 23.965 70.7583 23.1362C70.7583 21.8584 70.7583 21.0296 70.7928 20.7188V17.7834H70.8619C70.8619 15.815 70.8964 13.812 71 11.7745C70.9655 10.8767 70.9309 9.97879 70.9309 9.08091C70.9309 6.87074 70.8619 5.52393 70.7583 5.07499C70.6892 4.76418 70.6547 4.45338 70.6547 4.10804C70.6547 3.59003 70.3784 3.31376 69.8259 3.31376C69.4114 3.31376 69.1006 3.52097 68.8934 3.90084C68.8589 4.03897 68.8244 4.17711 68.8244 4.31524C68.8589 4.48791 68.8934 4.66058 68.928 4.83325C69.2042 5.6966 69.3424 6.62901 69.3424 7.56142C69.3424 12.4998 69.3078 15.6078 69.2388 16.9201C69.1352 17.7144 69.1006 19.9936 69.1006 23.7923C69.1006 24.6211 69.0316 25.4154 68.8934 26.1751C68.8589 26.2787 68.8589 26.4169 68.8589 26.5895C68.8589 27.1075 69.0661 27.3838 69.515 27.4184Z" fill="#484848"/>
<path d="M15.0553 29.7321C15.5733 29.7321 17.8525 29.5594 21.8929 29.2141C22.5146 29.2141 22.998 29.0069 23.3088 28.558C23.3779 28.4198 23.4124 28.2472 23.4124 28.04C23.4124 27.8673 23.3088 27.6946 23.1016 27.522C22.8944 27.3838 22.7908 27.1766 22.7908 26.9003L22.7563 25.3118C22.7563 23.5506 22.8599 22.3419 23.1016 21.6857L23.1362 21.444C23.1362 21.2023 23.0326 20.9951 22.8254 20.7879C22.6182 20.6152 22.3764 20.5116 22.1001 20.5116C21.8584 20.5116 21.3404 20.5807 20.4771 20.6843C19.7173 20.7879 18.8885 20.8569 18.0252 20.8915C17.2999 21.0987 16.6093 21.2023 15.9186 21.2023C15.7459 21.2023 15.5733 21.2368 15.4006 21.2713C15.3315 21.3059 15.2625 21.3059 15.2279 21.3059C15.1589 21.3059 15.0898 21.3059 15.0553 21.3404C14.5372 21.444 14.0192 21.5131 13.5012 21.5131L12.6034 21.4785L11.1529 21.6167C10.8076 21.6167 10.4623 21.5821 10.1515 21.4785C9.18451 21.3059 8.5629 21.2023 8.32116 21.2023C7.52689 21.2023 7.11248 21.444 7.11248 21.962C7.11248 22.1347 7.21608 22.3074 7.45782 22.5491C7.76862 22.8599 7.90676 23.2052 7.90676 23.5851V23.8959C7.90676 24.483 7.94129 25.001 8.04489 25.4499C7.97583 25.8298 7.94129 26.1751 7.90676 26.5205C7.87222 27.1421 7.73409 27.7292 7.49235 28.3162C7.45782 28.3853 7.42329 28.4544 7.42329 28.5234C7.42329 28.6961 7.49235 28.8688 7.63049 29.0069C7.87222 29.3868 8.2521 29.5594 8.7701 29.5594C9.46078 29.5594 10.0133 29.5594 10.4277 29.5249L13.5703 29.6976L15.0553 29.7321ZM14.2264 28.4198C12.9487 28.4198 11.6709 28.3162 10.3932 28.1436C9.94425 28.1436 9.70252 27.9018 9.70252 27.4529C9.80612 25.0355 9.84065 23.8268 9.87519 23.7578C9.87519 23.3088 10.1515 23.0671 10.704 23.0671C11.2565 23.0326 11.6709 23.0326 11.9127 22.998C12.3271 22.9635 12.7415 22.929 13.1904 22.8944C14.261 22.7908 15.297 22.6872 16.3675 22.5491C17.0237 22.4455 17.7144 22.3764 18.3705 22.3419C18.6813 22.3074 18.9576 22.3074 19.2684 22.2728C19.5446 22.2383 19.7864 22.2383 19.9936 22.2383C20.408 22.2383 20.6497 22.2728 20.7533 22.411C20.8915 22.5146 20.926 22.7563 20.926 23.1707C20.926 24.3448 20.8569 25.2427 20.7188 25.8989C20.7188 26.2787 20.7188 26.555 20.7533 26.7622C20.7879 27.0039 20.8224 27.2457 20.8569 27.4874C20.8569 27.7292 20.7533 27.8328 20.5807 27.8328C17.3345 28.2126 15.5387 28.3853 15.1934 28.3853L14.2264 28.4198ZM2.27775 17.5417C2.48495 17.5417 2.79576 17.2999 3.21016 16.7819L3.79724 16.1603C4.24618 15.7805 4.62605 15.4006 4.93685 15.0207C5.24766 14.6408 5.59299 14.33 5.93833 14.0192C6.04193 13.9156 6.14553 13.812 6.2146 13.6394C6.38727 13.3286 6.55994 13.0178 6.80168 12.776C7.00888 12.5343 7.18155 12.2926 7.35422 12.0163C7.42329 11.9127 7.49235 11.8436 7.59595 11.8436C7.76862 11.9127 7.87222 11.9817 7.97583 12.0853C9.52985 13.4322 10.9112 14.8135 12.1199 16.2294C12.3962 16.6438 12.8796 16.851 13.6048 16.851C13.7775 16.851 13.9156 16.7819 14.0538 16.6438C14.1574 16.5057 14.2264 16.3675 14.2264 16.1949C14.2264 15.8841 14.1228 15.6423 13.8811 15.5387C13.5012 15.297 13.1214 15.0207 12.8106 14.6408C12.8106 14.6063 12.776 14.5718 12.6724 14.4682C12.5688 14.3646 12.3962 14.2264 12.1889 14.0192C11.1184 12.9487 10.4623 12.3616 10.2896 12.258C9.14997 11.222 8.59743 10.6004 8.59743 10.4623C8.59743 10.2551 8.83917 9.80612 9.32264 9.18451C9.32264 9.14997 9.32264 9.14997 9.35718 9.14997C9.52985 9.14997 10.186 8.04489 11.2911 5.8002C11.74 4.86778 12.0163 3.96991 12.0508 3.10656L12.1199 2.62309C12.1199 2.45042 12.0163 2.27775 11.8436 2.13962C11.6364 2.00148 11.4292 1.93241 11.1875 1.93241C10.8767 1.93241 10.6695 2.03601 10.6349 2.20868C10.6004 2.41589 10.5313 2.62309 10.4623 2.79576C10.3587 3.00296 10.3241 3.2447 10.2896 3.48643C10.2551 4.17711 9.84065 5.17859 9.04637 6.49087C8.63197 7.38875 8.21756 8.07943 7.76862 8.59743C7.31968 9.11544 6.87074 9.73705 6.42181 10.4623C5.8002 11.5328 5.10952 12.4307 4.38431 13.225L4.17711 13.5012V13.5358C2.79576 15.2625 1.79428 16.2985 1.2072 16.6438C1.06907 16.7129 1 16.851 1 17.0237C1 17.2654 1.13814 17.4381 1.37987 17.4726C1.62161 17.5072 1.93241 17.5417 2.27775 17.5417ZM21.3404 18.8885C21.962 18.8885 22.3074 18.6122 22.411 18.0597C22.4455 17.7489 22.48 17.4036 22.48 17.0927C22.48 16.5402 22.5491 14.9171 22.6872 12.1889C22.6872 9.77158 22.7563 8.32116 22.8599 7.83769C22.8254 7.73409 22.8254 7.63049 22.8254 7.49235C22.8254 7.38875 22.8254 7.31968 22.8254 7.28515C22.8254 7.25062 22.7908 7.18155 22.7563 7.00888L22.7908 5.66206C22.7908 5.28219 22.7563 4.93685 22.7563 4.59151C22.7218 4.24618 22.7218 3.93537 22.7218 3.62457C22.6872 3.31376 22.6527 3.03749 22.5836 2.72669C22.5146 2.45042 22.48 2.13962 22.48 1.82881V1.72521C22.48 1.27627 22.2037 1.03453 21.6857 1C21.2713 1 20.9605 1.2072 20.7533 1.62161C20.6843 1.72521 20.6497 1.86334 20.6497 2.00148L20.7533 2.55402C21.0296 3.41737 21.1677 4.34978 21.1677 5.28219V8.63197C21.1332 8.94277 21.1332 9.49531 21.1332 10.2896C21.1332 10.3932 21.0987 10.4623 21.0641 10.5313C21.0296 10.6004 20.9951 12.2926 20.926 15.6078C20.926 16.2985 20.8569 16.9546 20.7188 17.6453C20.6843 17.7489 20.6843 17.887 20.6843 18.0597C20.6843 18.2669 20.7533 18.4396 20.8915 18.6122C20.9951 18.7849 21.1677 18.854 21.3404 18.8885Z" stroke="#484848" mask="url(#path-1-outside-1_1482_22)"/>
<path d="M41.37 29.5594C41.7153 29.5594 42.1297 29.5249 42.6132 29.4904C43.5456 29.3868 44.6852 28.7652 46.1011 27.6256C46.3774 27.4184 46.5846 27.1766 46.7227 26.9003C47.1717 26.0025 47.3789 25.1046 47.3789 24.1722C47.3789 22.2383 46.6191 21.0987 45.0997 20.7188C44.8925 20.6843 44.6852 20.6497 44.478 20.5461C43.9255 20.3735 43.4075 20.2699 42.924 20.2699C41.0592 20.2699 39.8505 20.8915 39.2634 22.1692L38.8145 23.0326C38.262 24.0686 37.9857 25.1737 37.9857 26.3478C38.0548 27.2802 38.3656 28.0745 38.9181 28.7652C39.1598 29.076 39.6088 29.2832 40.2649 29.4213C40.6103 29.5249 40.9901 29.5594 41.37 29.5594ZM41.7499 28.2817C41.1628 28.2817 40.6793 28.109 40.2649 27.7637C39.8505 27.4184 39.6433 26.9003 39.6433 26.2097C39.6433 25.0355 40.0232 23.965 40.7139 22.998C41.3009 22.2728 42.1297 21.8929 43.2348 21.8929C44.8925 21.8929 45.7213 22.5836 45.7213 23.9995C45.7213 24.3103 45.6867 24.5866 45.6177 24.7938C45.5486 25.001 45.5141 25.2082 45.4795 25.4154C45.3759 26.1751 44.9961 26.7967 44.3744 27.2457C43.5111 27.9364 42.6478 28.2817 41.7499 28.2817ZM27.9364 17.818C28.0054 17.7834 28.109 17.7144 28.1781 17.5762C28.6616 16.9891 29.2486 16.5747 29.9048 16.2639C30.3883 15.9877 32.0459 14.7444 34.8777 12.4998C35.3266 12.0853 35.6374 11.8781 35.8791 11.8781C35.9482 11.8781 36.1899 12.0853 36.5698 12.4652C37.5368 13.5012 38.0548 14.3991 38.1929 15.1243C38.262 15.7459 38.6418 16.0222 39.298 16.0222C39.9887 16.0222 40.3685 15.7114 40.3685 15.0553C40.3685 14.7099 40.2649 14.4336 40.0232 14.261C39.816 14.0883 39.6088 13.8811 39.4361 13.6739C39.2289 13.3976 38.9526 13.1559 38.6764 12.9832C38.1584 12.3271 37.744 11.5673 37.4332 10.7385C37.4332 10.4968 37.5368 10.2551 37.744 10.0133C38.9181 8.5629 39.816 7.73409 40.4376 7.45782C40.8865 7.28515 41.2319 7.14702 41.5081 7.04341C41.8535 6.87074 42.0261 6.59447 42.0261 6.18007C42.0261 5.9038 41.9225 5.66206 41.6463 5.42033C41.2664 5.10952 40.852 4.93685 40.4031 4.93685C38.9872 5.10952 38.1584 5.21312 37.9512 5.21312C37.7094 5.21312 37.5022 5.21312 37.2605 5.24766C35.1885 5.38579 33.1164 5.45486 31.0444 5.45486H29.076L28.4889 5.48939L27.2111 5.38579L26.7622 5.42033C26.3823 5.45486 26.2097 5.6966 26.2097 6.07647C26.2097 6.62901 26.6586 6.90528 27.5565 6.90528L29.076 6.93981C29.5594 6.93981 30.6991 6.87074 32.4948 6.76714V6.80168L33.5999 6.76714C34.4632 6.73261 35.5338 6.69808 36.8461 6.69808C37.5368 6.76714 37.9512 6.76714 38.1238 6.76714C38.262 6.76714 38.3656 6.80168 38.4001 6.90528C38.4001 6.97435 38.3656 7.04341 38.2965 7.11248C37.4332 7.97583 36.8461 8.59743 36.5353 8.97731C36.3281 9.21904 36.0863 9.42625 35.7755 9.56438C35.4993 9.73705 35.2575 9.94425 35.0849 10.2205C34.7395 10.8076 34.3251 11.2911 33.7726 11.6709C33.7035 11.6709 33.0128 12.1889 31.7696 13.2595C31.2171 13.7775 30.63 14.1574 29.9393 14.4682C28.1781 15.3315 27.3148 16.2294 27.3148 17.1963C27.3148 17.369 27.3148 17.4726 27.3493 17.5072C27.3838 17.5417 27.3838 17.5762 27.3838 17.6108C27.4184 17.7489 27.522 17.818 27.6946 17.818H27.9364ZM32.8056 3.21016C33.1855 3.17563 33.5999 3.10656 33.9452 3.00296C34.187 2.96843 34.4287 2.93389 34.6704 2.93389C34.9122 2.93389 35.1539 2.96843 35.3957 3.03749C35.6374 3.1411 35.8446 3.17563 36.0518 3.17563C37.1569 3.17563 37.6749 2.89936 37.6749 2.34682C37.6749 2.13962 37.5713 1.89788 37.295 1.65614C36.9497 1.34534 36.4662 1.2072 35.8446 1.2072C35.7065 1.2072 35.5338 1.2072 35.3611 1.24174C35.223 1.27627 35.0503 1.27627 34.9122 1.27627L33.9798 1.41441C33.8416 1.41441 33.7035 1.37987 33.5654 1.34534C33.3927 1.3108 33.1164 1.27627 32.633 1.27627C31.9077 1.27627 31.5624 1.55254 31.5624 2.07055C31.5624 2.38135 31.7351 2.65762 32.0804 2.93389C32.2876 3.10656 32.5294 3.21016 32.8056 3.21016ZM48.5876 19.0266C49.2437 19.0266 49.589 18.7504 49.6926 18.1978C49.7617 17.887 49.7617 17.5417 49.7617 17.2309C49.7617 15.7805 49.8308 14.8481 49.8999 14.4682C49.8999 14.3991 49.8653 14.261 49.8653 14.0538C49.8653 13.812 49.8653 13.6048 49.8999 13.4667C49.8999 13.3631 49.8999 12.9832 49.8999 12.3271H49.9689V11.2911H50.1071C50.038 10.9803 49.9689 10.6695 49.9689 10.3932C50.0035 9.56438 50.038 8.73557 50.1071 7.90676L50.038 7.18155C50.038 4.79872 50.0035 3.38283 49.8653 2.93389C49.7962 2.62309 49.7617 2.31228 49.7617 1.96695C49.7617 1.44894 49.4854 1.17267 48.9329 1.17267C48.553 1.17267 48.2422 1.37987 48.0005 1.75974C47.966 1.89788 47.9314 2.03601 47.9314 2.17415C47.966 2.34682 48.0005 2.51949 48.035 2.69216C48.3113 3.5555 48.4494 4.48791 48.4494 5.42033C48.4494 6.111 48.4494 6.62901 48.4494 6.97435C48.4149 7.31968 48.4149 8.2521 48.4149 9.80612L44.3744 9.90972H42.337C41.888 9.90972 41.5081 10.0479 41.1628 10.3241C40.9901 10.4623 40.9211 10.6349 40.9211 10.8076C40.9211 11.2911 41.2319 11.5328 41.888 11.5328C42.2333 11.5673 42.5442 11.6019 42.855 11.6019C45.8594 11.6019 47.6552 11.5673 48.2768 11.4637L48.2077 14.0538V15.5387C48.2077 16.2985 48.1386 17.0582 48.0005 17.7834C48.0005 17.887 47.966 18.0252 47.966 18.1978C47.966 18.7504 48.1732 19.0266 48.5876 19.0266Z" stroke="#484848" mask="url(#path-1-outside-1_1482_22)"/>
<path d="M57.0829 19.441C57.9808 19.441 59.0168 19.1302 60.1219 18.4741L61.3305 17.7834C61.9176 17.5072 62.332 17.0927 62.6428 16.5402C62.9536 16.0222 63.299 15.4351 63.6098 14.8135C64.0587 13.9847 64.3004 13.0868 64.3004 12.1889C64.3004 10.1515 63.4026 8.7701 61.6759 8.01036C61.296 7.83769 60.9161 7.76862 60.5017 7.76862C60.26 7.76862 60.0183 7.80316 59.7765 7.83769L59.3966 7.80316C58.706 7.80316 58.2225 7.90676 57.9462 8.11396C57.67 8.32116 57.3591 8.42477 56.9793 8.4593C56.5994 8.49383 56.3231 8.63197 56.0814 8.94277C55.7015 9.39171 55.2871 9.77158 54.8036 10.0824C54.5619 10.2551 54.3547 10.5313 54.182 10.8421C53.6295 11.8781 53.2496 12.9832 53.0079 14.261C52.9043 14.5718 52.8698 14.8481 52.8698 15.1243C52.8698 15.3315 52.9388 15.7114 53.0424 16.2985V16.4366C53.1806 17.5417 53.7331 18.336 54.7001 18.8194C55.4943 19.2338 56.2886 19.441 57.0829 19.441ZM57.0483 17.8525C56.3922 17.8525 55.8051 17.6798 55.3217 17.3345C54.8382 16.9891 54.5619 16.1603 54.5274 14.9171C54.6655 14.33 54.7691 13.9502 54.8382 13.812C54.9072 13.6739 54.9418 13.5358 54.9763 13.3976C55.2181 12.5688 55.5289 11.9817 55.8397 11.6709C56.0123 11.4983 56.185 11.2565 56.4267 10.9457C56.5994 10.704 56.9793 10.4623 57.6009 10.1515C57.9808 9.94425 58.2225 9.80612 58.3952 9.80612C58.4642 9.80612 58.5333 9.84065 58.6369 9.84065C58.7405 9.87519 58.8441 9.87519 58.9477 9.87519C59.224 9.87519 59.5002 9.84065 59.742 9.73705C60.0183 9.63345 60.26 9.59891 60.4672 9.59891C61.0888 9.59891 61.5723 9.87519 61.9521 10.3932C62.2975 10.9112 62.5047 11.4637 62.5047 12.0508C62.5047 12.258 62.4702 12.4652 62.4356 12.6724C62.332 12.8451 62.263 13.1904 62.1939 13.7084C62.0903 14.6063 61.6759 15.3661 60.9852 15.9531C60.5708 16.2985 60.1564 16.6438 59.742 16.9546C58.9477 17.5417 58.0498 17.8525 57.0483 17.8525ZM69.515 27.4184C70.1367 27.4184 70.482 27.1421 70.5856 26.5895C70.6201 26.2787 70.6547 25.9334 70.6547 25.6226C70.6547 24.7938 70.6892 23.965 70.7583 23.1362C70.7583 21.8584 70.7583 21.0296 70.7928 20.7188V17.7834H70.8619C70.8619 15.815 70.8964 13.812 71 11.7745C70.9655 10.8767 70.9309 9.97879 70.9309 9.08091C70.9309 6.87074 70.8619 5.52393 70.7583 5.07499C70.6892 4.76418 70.6547 4.45338 70.6547 4.10804C70.6547 3.59003 70.3784 3.31376 69.8259 3.31376C69.4114 3.31376 69.1006 3.52097 68.8934 3.90084C68.8589 4.03897 68.8244 4.17711 68.8244 4.31524C68.8589 4.48791 68.8934 4.66058 68.928 4.83325C69.2042 5.6966 69.3424 6.62901 69.3424 7.56142C69.3424 12.4998 69.3078 15.6078 69.2388 16.9201C69.1352 17.7144 69.1006 19.9936 69.1006 23.7923C69.1006 24.6211 69.0316 25.4154 68.8934 26.1751C68.8589 26.2787 68.8589 26.4169 68.8589 26.5895C68.8589 27.1075 69.0661 27.3838 69.515 27.4184Z" stroke="#484848" mask="url(#path-1-outside-1_1482_22)"/>
<path d="M6.10557 14.283L6.10581 14.2833L6.11511 14.274L6.12133 14.2678C6.22169 14.1674 6.35214 14.0371 6.44035 13.8258C6.61359 13.5141 6.76876 13.2404 6.97845 13.0307L6.98524 13.024L6.99149 13.0167C7.20742 12.7648 7.38679 12.5135 7.56414 12.2301C7.57452 12.2146 7.5835 12.2023 7.59139 12.1924C7.68171 12.2362 7.73949 12.2805 7.79905 12.3401L7.80536 12.3464L7.81209 12.3522C9.35368 13.6883 10.723 15.0572 11.9205 16.4589C12.2621 16.9604 12.8406 17.179 13.6048 17.179C13.8598 17.179 14.0582 17.0708 14.2306 16.8985L14.2431 16.886L14.2538 16.8718C14.3738 16.7117 14.4764 16.5213 14.4764 16.2728C14.4764 15.9204 14.3574 15.5603 13.9998 15.3959C13.6469 15.1704 13.3115 14.9238 13.0357 14.5984C13.0159 14.552 12.9889 14.5181 12.9724 14.4983C12.9433 14.4635 12.9017 14.4218 12.857 14.3772L12.8492 14.3694C12.8007 14.3209 12.7392 14.266 12.6751 14.2089C12.6622 14.1974 12.6492 14.1858 12.6362 14.1742C12.5554 14.1019 12.4644 14.0191 12.3657 13.9204C11.8288 13.3835 11.3945 12.9665 11.0717 12.6699C10.7787 12.4007 10.5611 12.2148 10.4418 12.1365C9.88289 11.6278 9.47076 11.2235 9.19936 10.9313C9.06187 10.7832 8.96417 10.6678 8.9024 10.5845C8.87858 10.5524 8.86228 10.5279 8.85174 10.5104C8.85574 10.4918 8.86323 10.4648 8.87697 10.428C8.90138 10.3626 8.94046 10.2796 8.99686 10.1789C9.10625 9.98355 9.27271 9.73591 9.49902 9.44298C9.50797 9.43849 9.51592 9.43404 9.52281 9.42995C9.55888 9.40854 9.59027 9.38229 9.61621 9.35778C9.66823 9.30864 9.72234 9.24345 9.77744 9.16931C9.88887 9.01938 10.0271 8.80163 10.1906 8.52045C10.5186 7.95624 10.9619 7.11284 11.5154 5.98857L11.5163 5.9866C11.9721 5.04006 12.2615 4.11214 12.3001 3.2074L12.3674 2.73639L12.3699 2.7188V2.70104C12.3699 2.42632 12.2078 2.18879 11.9998 2.02235L11.9913 2.01557L11.9823 2.00955C11.7387 1.84715 11.4839 1.76036 11.1875 1.76036C11.0078 1.76036 10.8365 1.78978 10.6958 1.86014C10.5516 1.93224 10.426 2.05631 10.3898 2.2376L10.3897 2.23758L10.3883 2.24553C10.3584 2.42499 10.2979 2.61021 10.2337 2.77187C10.1157 3.01326 10.0769 3.28515 10.0446 3.51165L10.0421 3.52903L10.0405 3.54041L10.0399 3.5519C10.0088 4.17474 9.62546 5.12927 8.8325 6.43937L8.82525 6.45135L8.81938 6.46406C8.41029 7.35043 8.00747 8.01808 7.5797 8.51165C7.12023 9.04181 6.66357 9.67469 6.20924 10.4086L6.20915 10.4086L6.20561 10.4147C5.59417 11.4677 4.91461 12.3513 4.19969 13.1343L4.19155 13.1433L4.18431 13.1529L3.97711 13.4292L3.92711 13.4958V13.5259C3.2625 14.3539 2.69023 15.0156 2.2138 15.5128C1.72407 16.0238 1.34867 16.3469 1.08666 16.5026C0.849008 16.6259 0.75 16.8634 0.75 17.1016C0.75 17.2704 0.79876 17.4337 0.907229 17.5638C1.01661 17.6951 1.17062 17.7732 1.34452 17.7981C1.59265 17.8335 1.91622 17.8696 2.27775 17.8696C2.46978 17.8696 2.65618 17.7632 2.82309 17.6287C2.99653 17.489 3.18856 17.2863 3.39891 17.0241L3.96944 16.42C4.42319 16.0352 4.81073 15.6476 5.13034 15.257C5.42723 14.8941 5.75842 14.5954 6.10557 14.283ZM8.83789 10.4842C8.83798 10.4842 8.83863 10.4856 8.83956 10.4882C8.83826 10.4855 8.83779 10.4842 8.83789 10.4842Z" fill="#F36E67" stroke="#F36E67" stroke-width="0.5"/>
</svg>