<svg width="17" height="17" viewBox="0 0 17 17" fill="none" xmlns="http://www.w3.org/2000/svg">
<path d="M7.08334 8.49992C7.08334 8.87564 7.2326 9.23598 7.49828 9.50165C7.76395 9.76733 8.12429 9.91658 8.50001 9.91658C8.87573 9.91658 9.23607 9.76733 9.50174 9.50165C9.76742 9.23598 9.91668 8.87564 9.91668 8.49992C9.91668 8.12419 9.76742 7.76386 9.50174 7.49818C9.23607 7.23251 8.87573 7.08325 8.50001 7.08325C8.12429 7.08325 7.76395 7.23251 7.49828 7.49818C7.2326 7.76386 7.08334 8.12419 7.08334 8.49992ZM7.08334 4.24992C7.08334 4.62564 7.2326 4.98598 7.49828 5.25165C7.76395 5.51733 8.12429 5.66658 8.50001 5.66658C8.87573 5.66658 9.23607 5.51733 9.50174 5.25165C9.76742 4.98598 9.91668 4.62564 9.91668 4.24992C9.91668 3.8742 9.76742 3.51386 9.50174 3.24818C9.23607 2.98251 8.87573 2.83325 8.50001 2.83325C8.12429 2.83325 7.76395 2.98251 7.49828 3.24818C7.2326 3.51386 7.08334 3.8742 7.08334 4.24992ZM7.08334 12.7499C7.08334 13.1256 7.2326 13.486 7.49828 13.7517C7.76395 14.0173 8.12429 14.1666 8.50001 14.1666C8.87573 14.1666 9.23607 14.0173 9.50174 13.7517C9.76742 13.486 9.91668 13.1256 9.91668 12.7499C9.91668 12.3742 9.76742 12.0139 9.50174 11.7482C9.23607 11.4825 8.87573 11.3333 8.50001 11.3333C8.12429 11.3333 7.76395 11.4825 7.49828 11.7482C7.2326 12.0139 7.08334 12.3742 7.08334 12.7499Z" fill="#C2C2C2"/>
</svg>
