<svg width="28" height="28" viewBox="0 0 28 28" fill="none" xmlns="http://www.w3.org/2000/svg">
<path d="M19.039 3.47816C17.449 1.88816 14.765 2.35416 13.803 4.38516L11.25 9.77516C11.0576 10.1813 10.7164 10.4978 10.297 10.6592L6.167 12.2472C5.89477 12.3517 5.65298 12.5227 5.46362 12.7445C5.27426 12.9662 5.14332 13.2318 5.08271 13.5171C5.0221 13.8023 5.03374 14.0982 5.11658 14.3778C5.19941 14.6575 5.3508 14.9119 5.557 15.1182L8.69 18.2502L3 23.9402V25.0002H4.06L9.75 19.3102L12.882 22.4422C13.0882 22.6481 13.3426 22.7993 13.6221 22.882C13.9016 22.9647 14.1974 22.9763 14.4825 22.9157C14.7676 22.8551 15.033 22.7243 15.2547 22.535C15.4764 22.3458 15.6474 22.1042 15.752 21.8322L17.341 17.7022C17.502 17.2832 17.819 16.9422 18.225 16.7492L23.615 14.1962C25.646 13.2342 26.111 10.5502 24.522 8.96116L19.039 3.47816Z" fill="#EEC3B3"/>
</svg>
