<svg width="33" height="33" viewBox="0 0 33 33" fill="none" xmlns="http://www.w3.org/2000/svg">
<path d="M13.7898 5.59296C12.4654 5.5931 11.1604 5.91049 9.98396 6.51856C8.8075 7.12662 7.79381 8.00767 7.02777 9.08794C6.26173 10.1682 5.76563 11.4163 5.58098 12.7277C5.39634 14.039 5.52853 15.3756 5.96649 16.6254C6.40445 17.8752 7.13543 19.0019 8.09825 19.9112C9.06107 20.8204 10.2277 21.4858 11.5005 21.8517C12.7733 22.2175 14.1152 22.2731 15.4139 22.0138C16.7126 21.7545 17.9302 21.1879 18.965 20.3614L25.1139 26.5103C25.2876 26.6781 25.5203 26.7709 25.7618 26.7688C26.0034 26.7667 26.2344 26.6698 26.4052 26.499C26.576 26.3282 26.6729 26.0972 26.675 25.8557C26.6771 25.6141 26.5842 25.3814 26.4164 25.2077L20.2675 19.0588C21.2421 17.839 21.8525 16.3689 22.0284 14.8175C22.2042 13.2661 21.9384 11.6966 21.2616 10.2896C20.5848 8.88262 19.5244 7.69535 18.2026 6.86446C16.8807 6.03357 15.3511 5.59282 13.7898 5.59296V5.59296ZM7.34147 13.8836C7.34147 12.1734 8.02084 10.5333 9.23013 9.32398C10.4394 8.11469 12.0796 7.43532 13.7898 7.43532C15.4999 7.43532 17.1401 8.11469 18.3494 9.32398C19.5587 10.5333 20.238 12.1734 20.238 13.8836C20.238 15.5938 19.5587 17.2339 18.3494 18.4432C17.1401 19.6525 15.4999 20.3319 13.7898 20.3319C12.0796 20.3319 10.4394 19.6525 9.23013 18.4432C8.02084 17.2339 7.34147 15.5938 7.34147 13.8836V13.8836Z" fill="#233A26"/>
</svg>
